:SAMPLES-PER-SECOND 30
:FULLY-SPECIFIED
:DEGREES
78
root  2.144 38.79 0.119418 -161.579 78.963 -153.441
RightUpLeg  -11.6637 -21.7716 4.12267
RightLeg  28.4852 0.214835 -0.110196
RightFoot  -7.08103 0.156764 -5.50302
RightToes  0.000482159 0.542163 -0.142577
Spine  14.6736 -1.84603 11.3068
Spine1  9.98898 -0.0994045 1.95987
HEad  11.5877 1.50675 -7.55586
LeftShoulder1  6.19092 -9.6404 -40.7867
LeftArm  -15.719 18.0629 -33.4327
LeftForeArm  41.4907 -43.8893 -7.96166
LeftHand  -0.25398 0.0180481 5.50724
RightShoulder  4.30678 7.5254 33.1054
RightArm  -3.71315 -10.8117 37.9079
RightForeArm  2.36555 19.4368 5.1088
RightHand  -1.55822 3.98213 -19.448
LeftUpLeg  -13.7849 -1.06456 7.2119
LeftLeg  66.2572 2.81343 7.70886
LeftFoot  6.75699 0.228175 -1.66881
LeftToes  1.06246e-005 4.65855e-005 -8.18503e-006
79
root  3.61013 39.1101 0.311966 -165.269 78.8221 -157.365
RightUpLeg  -8.14761 -21.8763 3.03774
RightLeg  26.7154 -0.351796 0.0973806
RightFoot  -8.74542 0.0624878 -5.34152
RightToes  0.000482159 0.542163 -0.142577
Spine  13.9694 -1.16396 11.1828
Spine1  9.97661 0.80721 0.543172
HEad  12.1563 1.11262 -7.49914
LeftShoulder1  6.21853 -9.72584 -40.6978
LeftArm  -14.73 19.0777 -33.2538
LeftForeArm  41.7561 -43.1009 -7.69335
LeftHand  -0.25398 0.0180481 5.50724
RightShoulder  4.25848 7.48561 32.8078
RightArm  -1.44722 -8.32286 38.0333
RightForeArm  1.81624 21.4026 4.90041
RightHand  -1.35078 3.06054 -18.7027
LeftUpLeg  -16.9028 -0.171248 5.81344
LeftLeg  61.7153 3.17027 6.97047
LeftFoot  3.82355 0.144635 -1.25521
LeftToes  1.06246e-005 4.65855e-005 -8.18503e-006
80
root  5.04834 39.4002 0.48268 -168.623 78.6495 -160.977
RightUpLeg  -4.45089 -19.8119 1.86399
RightLeg  24.3033 -2.78026 0.506282
RightFoot  -9.82485 -0.00281389 -4.79241
RightToes  0.000482159 0.542163 -0.142577
Spine  13.2057 -0.392396 11.0875
Spine1  9.99418 1.76946 -1.03745
HEad  12.6963 0.636418 -7.71499
LeftShoulder1  6.26395 -9.81265 -40.731
LeftArm  -13.855 20.1305 -32.9173
LeftForeArm  41.0696 -41.5203 -7.24918
LeftHand  -0.25398 0.0180481 5.50724
RightShoulder  4.18843 7.39082 32.502
RightArm  0.162855 -6.26798 37.7838
RightForeArm  0.49327 24.004 5.0851
RightHand  -1.26109 2.48443 -18.707
LeftUpLeg  -18.7247 1.21016 4.25048
LeftLeg  53.8908 4.06476 6.42602
LeftFoot  1.79236 0.132026 -1.26029
LeftToes  1.06246e-005 4.65855e-005 -8.18503e-006
81
root  6.43928 39.5971 0.616897 -170.601 78.2061 -163.238
RightUpLeg  -1.14626 -16.8852 1.32662
RightLeg  22.0456 -5.99296 0.925453
RightFoot  -10.8613 -0.0553173 -4.42227
RightToes  0.000482159 0.542163 -0.142577
Spine  12.5429 0.290351 11.2979
Spine1  9.88383 2.62257 -2.47705
HEad  13.2478 0.231507 -8.1156
LeftShoulder1  6.31321 -9.87078 -40.8857
LeftArm  -13.3801 21.1975 -32.55
LeftForeArm  40.0206 -39.2219 -6.64403
LeftHand  -0.25398 0.0180481 5.50724
RightShoulder  4.11978 7.27818 32.2667
RightArm  0.515109 -4.50298 37.1041
RightForeArm  0.0602821 26.6823 5.73629
RightHand  -1.28746 2.42978 -19.2114
LeftUpLeg  -19.3111 3.21546 2.66707
LeftLeg  43.2405 5.68337 6.05124
LeftFoot  0.725939 0.238088 -2.2856
LeftToes  1.06246e-005 4.65855e-005 -8.18503e-006
82
root  7.82897 39.6682 0.716572 -170.519 77.709 -163.387
RightUpLeg  1.86219 -14.077 1.66728
RightLeg  20.182 -9.26812 1.11229
RightFoot  -12.2122 -0.116442 -4.4383
RightToes  0.000482159 0.542163 -0.142577
Spine  11.8038 0.928212 11.7969
Spine1  9.93797 3.42089 -3.70887
HEad  13.7192 0.074377 -8.52059
LeftShoulder1  6.28834 -9.80211 -40.9381
LeftArm  -13.5243 22.285 -32.4274
LeftForeArm  38.849 -36.3301 -5.92928
LeftHand  -0.25398 0.0180481 5.50724
RightShoulder  4.10476 7.27279 32.1461
RightArm  0.479632 -2.88512 36.1494
RightForeArm  0.336991 28.9697 6.26697
RightHand  -1.33254 2.60767 -19.4452
LeftUpLeg  -18.7755 7.16501 0.911284
LeftLeg  30.9774 7.54597 5.28028
LeftFoot  0.57722 0.240436 -2.34141
LeftToes  1.06246e-005 4.65855e-005 -8.18503e-006
83
root  9.24626 39.6417 0.78673 -170.361 77.2099 -163.241
RightUpLeg  5.03782 -12.3378 2.17777
RightLeg  18.4926 -11.669 1.24545
RightFoot  -13.7503 -0.177185 -4.05617
RightToes  0.000482159 0.542163 -0.142577
Spine  10.8937 1.50923 12.0858
Spine1  10.5343 4.20654 -4.89226
HEad  14.2289 0.0215565 -8.65887
LeftShoulder1  6.16285 -9.59653 -40.7325
LeftArm  -14.2309 23.3538 -32.5719
LeftForeArm  37.3255 -32.9941 -5.17788
LeftHand  -0.25398 0.0180481 5.50724
RightShoulder  4.14859 7.38239 32.1655
RightArm  0.150747 -1.33802 35.1483
RightForeArm  0.835995 30.497 6.61876
RightHand  -1.3764 2.88077 -19.434
LeftUpLeg  -17.4515 14.8393 -1.61168
LeftLeg  18.9389 8.33355 3.40384
LeftFoot  1.26319 0.300682 -2.75235
LeftToes  1.06246e-005 4.65855e-005 -8.18503e-006
